<svg width="25" height="25" viewBox="0 0 25 25" fill="none" xmlns="http://www.w3.org/2000/svg">
<path d="M14.7 3.6748C13.4734 3.6748 12.297 4.16208 11.4296 5.02944C10.5623 5.89679 10.075 7.07318 10.075 8.2998V10.8748H7.6C7.476 10.8748 7.375 10.9748 7.375 11.0998V14.4998C7.375 14.6238 7.475 14.7248 7.6 14.7248H10.075V21.6998C10.075 21.8238 10.175 21.9248 10.3 21.9248H13.7C13.824 21.9248 13.925 21.8248 13.925 21.6998V14.7248H16.422C16.525 14.7248 16.615 14.6548 16.64 14.5548L17.49 11.1548C17.4984 11.1216 17.4991 11.087 17.492 11.0535C17.485 11.02 17.4704 10.9886 17.4494 10.9616C17.4283 10.9346 17.4014 10.9127 17.3707 10.8977C17.34 10.8827 17.3062 10.8748 17.272 10.8748H13.925V8.2998C13.925 8.19803 13.945 8.09725 13.984 8.00322C14.0229 7.9092 14.08 7.82376 14.152 7.7518C14.224 7.67983 14.3094 7.62275 14.4034 7.5838C14.4974 7.54485 14.5982 7.5248 14.7 7.5248H17.3C17.424 7.5248 17.525 7.4248 17.525 7.2998V3.8998C17.525 3.7758 17.425 3.6748 17.3 3.6748H14.7Z" fill="white"/>
</svg>
