<svg width="32" height="33" viewBox="0 0 32 33" fill="none" xmlns="http://www.w3.org/2000/svg">
<g clip-path="url(#clip0_525_3189)">
<path d="M21.7078 12.7918C21.8009 12.8847 21.8748 12.9951 21.9252 13.1166C21.9756 13.2381 22.0016 13.3683 22.0016 13.4998C22.0016 13.6314 21.9756 13.7616 21.9252 13.8831C21.8748 14.0046 21.8009 14.1149 21.7078 14.2078L15.7078 20.2078C15.6149 20.301 15.5046 20.3748 15.3831 20.4253C15.2616 20.4757 15.1313 20.5016 14.9998 20.5016C14.8683 20.5016 14.738 20.4757 14.6165 20.4253C14.495 20.3748 14.3847 20.301 14.2918 20.2078L11.2918 17.2078C11.1988 17.1149 11.1251 17.0045 11.0748 16.883C11.0244 16.7615 10.9985 16.6313 10.9985 16.4998C10.9985 16.3683 11.0244 16.2381 11.0748 16.1167C11.1251 15.9952 11.1988 15.8848 11.2918 15.7918C11.3848 15.6989 11.4952 15.6251 11.6166 15.5748C11.7381 15.5245 11.8683 15.4986 11.9998 15.4986C12.1313 15.4986 12.2615 15.5245 12.383 15.5748C12.5044 15.6251 12.6148 15.6989 12.7078 15.7918L14.9998 18.0858L20.2918 12.7918C20.3847 12.6987 20.495 12.6248 20.6165 12.5744C20.738 12.524 20.8683 12.498 20.9998 12.498C21.1313 12.498 21.2616 12.524 21.3831 12.5744C21.5046 12.6248 21.6149 12.6987 21.7078 12.7918Z" fill="white"/>
<path d="M8 0.5C6.93913 0.5 5.92172 0.921427 5.17157 1.67157C4.42143 2.42172 4 3.43913 4 4.5V28.5C4 29.5609 4.42143 30.5783 5.17157 31.3284C5.92172 32.0786 6.93913 32.5 8 32.5H24C25.0609 32.5 26.0783 32.0786 26.8284 31.3284C27.5786 30.5783 28 29.5609 28 28.5V4.5C28 3.43913 27.5786 2.42172 26.8284 1.67157C26.0783 0.921427 25.0609 0.5 24 0.5L8 0.5ZM8 2.5H24C24.5304 2.5 25.0391 2.71071 25.4142 3.08579C25.7893 3.46086 26 3.96957 26 4.5V28.5C26 29.0304 25.7893 29.5391 25.4142 29.9142C25.0391 30.2893 24.5304 30.5 24 30.5H8C7.46957 30.5 6.96086 30.2893 6.58579 29.9142C6.21071 29.5391 6 29.0304 6 28.5V4.5C6 3.96957 6.21071 3.46086 6.58579 3.08579C6.96086 2.71071 7.46957 2.5 8 2.5Z" fill="white"/>
</g>
<defs>
<clipPath id="clip0_525_3189">
<rect width="32" height="32" fill="white" transform="translate(0 0.5)"/>
</clipPath>
</defs>
</svg>
