<svg width="33" height="32" viewBox="0 0 33 32" fill="none" xmlns="http://www.w3.org/2000/svg">
<path d="M20.5001 13.3333L15.1668 18.6666L12.5001 15.9999M18.1615 4.61193L19.7895 5.9986C20.2001 6.34793 20.7095 6.5586 21.2455 6.6026L23.3788 6.77327C23.9852 6.82168 24.5545 7.08443 24.9847 7.51444C25.415 7.94444 25.678 8.5136 25.7268 9.11993L25.8961 11.2533C25.9401 11.7906 26.1521 12.3013 26.5015 12.7106L27.8881 14.3373C28.2833 14.8006 28.5004 15.3896 28.5004 15.9986C28.5004 16.6076 28.2833 17.1966 27.8881 17.6599L26.5015 19.2879C26.1521 19.6986 25.9401 20.2079 25.8975 20.7453L25.7268 22.8786C25.6784 23.485 25.4156 24.0543 24.9856 24.4845C24.5556 24.9148 23.9865 25.1778 23.3801 25.2266L21.2468 25.3973C20.7097 25.4398 20.1997 25.6507 19.7895 25.9999L18.1615 27.3866C17.6981 27.7818 17.1091 27.9989 16.5001 27.9989C15.8912 27.9989 15.3021 27.7818 14.8388 27.3866L13.2121 25.9999C12.8015 25.6504 12.291 25.4395 11.7535 25.3973L9.62013 25.2266C9.01359 25.1778 8.44426 24.9145 8.01423 24.484C7.58419 24.0535 7.32158 23.4839 7.27346 22.8773L7.1028 20.7453C7.05962 20.2085 6.84826 19.699 6.4988 19.2893L5.11213 17.6599C4.71764 17.1968 4.50098 16.6083 4.50098 15.9999C4.50098 15.3916 4.71764 14.8031 5.11213 14.3399L6.4988 12.7106C6.84946 12.2999 7.0588 11.7906 7.10146 11.2533L7.27213 9.12127C7.32067 8.51428 7.58399 7.94446 8.01482 7.51413C8.44564 7.08379 9.01575 6.82112 9.6228 6.77327L11.7535 6.60393C12.2907 6.56103 12.8007 6.34965 13.2108 5.99993L14.8388 4.61327C15.3021 4.21807 15.8912 4.00098 16.5001 4.00098C17.1091 4.00098 17.6981 4.21673 18.1615 4.61193Z" stroke="#61D28F" stroke-opacity="0.75" stroke-width="2.66667" stroke-linecap="round" stroke-linejoin="round"/>
</svg>
