<svg width="24" height="24" viewBox="0 0 24 24" fill="none" xmlns="http://www.w3.org/2000/svg">
<g clip-path="url(#clip0_559_2358)">
<path d="M16.1534 7.80656C15.2067 6.85824 14.1882 5.98453 13.1068 5.19323C13.8464 4.74631 14.6225 4.36272 15.4268 4.04656C15.6401 3.96656 15.8401 3.90656 16.0401 3.84656C16.2024 4.04289 16.4114 4.1953 16.648 4.28977C16.8845 4.38424 17.141 4.41775 17.3939 4.38722C17.6468 4.35669 17.8879 4.26309 18.0952 4.11504C18.3025 3.96698 18.4692 3.76921 18.5801 3.53989C19.0563 3.58252 19.5056 3.77911 19.8601 4.09989C20.6534 4.89323 20.6734 6.49323 19.9268 8.48656C20.2534 8.91989 20.5534 9.35989 20.8268 9.81989C20.9401 9.55323 21.0601 9.29323 21.1534 9.03323C22.1334 6.46656 22.0068 4.36656 20.8001 3.17989C20.1961 2.60869 19.41 2.26877 18.5801 2.21989C18.4416 1.9312 18.2159 1.69335 17.9348 1.54C17.6537 1.38665 17.3315 1.32555 17.0138 1.36536C16.6961 1.40517 16.399 1.54386 16.1644 1.76181C15.9298 1.97977 15.7698 2.26596 15.7068 2.57989C15.4601 2.65323 15.2134 2.72656 14.9534 2.82656C13.8886 3.24689 12.8681 3.77168 11.9068 4.39323C10.9444 3.76207 9.92159 3.22832 8.85344 2.79989C6.28678 1.82656 4.18678 1.94656 3.00678 3.15323C1.90011 4.26656 1.72011 6.11323 2.45344 8.39323C2.28607 8.60845 2.17966 8.86473 2.14538 9.13522C2.1111 9.4057 2.1502 9.68042 2.25858 9.9306C2.36697 10.1808 2.54065 10.3972 2.76143 10.5572C2.98221 10.7172 3.24195 10.8148 3.51344 10.8399C3.72678 11.2466 3.96011 11.6532 4.22011 12.0532C3.60084 13.0161 3.08042 14.0391 2.66678 15.1066C1.68678 17.6666 1.81344 19.7732 3.02011 20.9532C3.38723 21.2963 3.81952 21.5622 4.29133 21.7352C4.76314 21.9081 5.26488 21.9845 5.76678 21.9599C6.83177 21.9257 7.88189 21.6999 8.86678 21.2932C9.93387 20.8733 10.9567 20.3485 11.9201 19.7266C12.8756 20.3612 13.8917 20.8994 14.9534 21.3332C15.7344 21.6402 16.5527 21.842 17.3868 21.9332C17.5332 22.2446 17.7801 22.4977 18.0877 22.6517C18.3954 22.8058 18.7459 22.8519 19.083 22.7827C19.42 22.7134 19.7239 22.5328 19.9459 22.2699C20.1679 22.007 20.295 21.6771 20.3068 21.3332C20.4837 21.2236 20.649 21.0963 20.8001 20.9532C22.0068 19.7466 22.1334 17.6666 21.1534 15.1066C20.0033 12.357 18.3016 9.87252 16.1534 7.80656ZM8.38011 20.0599C6.38011 20.8266 4.74678 20.8132 3.94678 20.0066C3.14678 19.1999 3.12678 17.5932 3.90011 15.5799C4.21413 14.7759 4.59548 13.9998 5.04011 13.2599C5.83371 14.3374 6.70729 15.3536 7.65344 16.2999C7.94011 16.5866 8.23344 16.8666 8.52678 17.1332C8.92678 16.9288 9.33344 16.6954 9.74678 16.4332C9.36011 16.0866 8.97344 15.7666 8.60011 15.3599C7.09964 13.8855 5.81173 12.2094 4.77344 10.3799C4.98195 10.1638 5.12209 9.89098 5.17633 9.59562C5.23057 9.30025 5.1965 8.99546 5.07838 8.71936C4.96026 8.44327 4.76333 8.20814 4.51225 8.04341C4.26116 7.87868 3.96707 7.79165 3.66678 7.79323C3.16678 6.12656 3.25344 4.79989 3.95344 4.09989C4.19998 3.88262 4.48725 3.71651 4.79855 3.61122C5.10984 3.50593 5.43896 3.46355 5.76678 3.48656C6.66638 3.5166 7.55349 3.70622 8.38678 4.04656C9.19104 4.36272 9.96714 4.74631 10.7068 5.19323C9.62539 5.98453 8.6068 6.85824 7.66011 7.80656C7.36678 8.09989 7.08011 8.40656 6.80011 8.71323C7.00055 9.13574 7.22308 9.54743 7.46678 9.94656C7.82678 9.53989 8.19344 9.13989 8.58678 8.74656C9.61237 7.72192 10.728 6.79151 11.9201 5.96656C13.0992 6.79505 14.2034 7.72528 15.2201 8.74656C16.2448 9.77216 17.1752 10.8878 18.0001 12.0799C17.1732 13.2705 16.2429 14.386 15.2201 15.4132C13.28 17.4114 10.9525 18.9925 8.38011 20.0599ZM19.8601 19.9999L19.7534 20.0866C19.5784 19.9382 19.3718 19.8315 19.1495 19.7747C18.9271 19.7179 18.6947 19.7124 18.4699 19.7586C18.2451 19.8049 18.0338 19.9017 17.8519 20.0416C17.67 20.1816 17.5224 20.3611 17.4201 20.5666C16.7349 20.4783 16.0631 20.3059 15.4201 20.0532C14.6145 19.7401 13.8381 19.3564 13.1001 18.9066C14.1815 18.1153 15.2001 17.2415 16.1468 16.2932C17.0968 15.3505 17.9707 14.334 18.7601 13.2532C19.207 13.9929 19.5906 14.769 19.9068 15.5732C20.6668 17.5932 20.6668 19.2066 19.8601 19.9999Z" fill="#CB4E28"/>
<path d="M12.3478 14.2143C13.5471 14.0196 14.3615 12.8895 14.1668 11.6902C13.9722 10.4909 12.8421 9.67646 11.6428 9.87114C10.4434 10.0658 9.62901 11.1959 9.82369 12.3952C10.0184 13.5945 11.1484 14.409 12.3478 14.2143Z" fill="#CB4E28"/>
</g>
<defs>
<clipPath id="clip0_559_2358">
<rect width="24" height="24" fill="white"/>
</clipPath>
</defs>
</svg>
