<svg width="32" height="32" viewBox="0 0 32 32" fill="none" xmlns="http://www.w3.org/2000/svg">
<path d="M10.0069 1.125L8.73204 16.9906C8.84153 16.9803 8.95144 16.975 9.06141 16.9748C9.33404 16.9748 9.59929 17.0066 9.85454 17.0652L11.1355 1.125H10.0069ZM15.8749 1.125V17.4827C16.0609 17.4528 16.249 17.4377 16.4374 17.4375C16.6286 17.4375 16.8165 17.4529 16.9999 17.4823V1.125H15.8749ZM21.8749 1.125V17.4823C22.2475 17.4226 22.6272 17.4226 22.9999 17.4823V1.125H21.8749ZM27.8749 1.125V17.4823C28.0609 17.4525 28.249 17.4375 28.4374 17.4375C28.6287 17.4375 28.8165 17.4533 28.9999 17.4827V1.125H27.8749ZM2.92029 14.0791C3.22254 15.7191 3.84529 16.9413 5.01754 18.3493C3.91066 18.1072 2.5896 17.0547 1.70079 15.9761C2.0791 17.4567 3.60491 19.1536 4.7391 20.2272C3.85348 20.1471 2.1346 19.3697 1.22754 18.7663C1.60673 19.6672 3.58704 21.6638 4.7611 21.9584C3.27598 22.1465 1.95885 21.4111 1.51279 21.2271C1.91391 22.0456 2.9436 23.0369 7.06004 23.4806C6.11923 22.8379 5.49898 21.7572 5.49898 20.5372C5.49898 19.1763 6.27073 17.9891 7.39835 17.3894C5.73166 16.7866 4.16116 15.7791 2.92023 14.0791L2.92029 14.0791ZM9.06154 18.0998C7.70866 18.0998 6.62404 19.1844 6.62404 20.5373C6.62404 21.8901 7.70866 22.9748 9.06154 22.9748C10.4144 22.9748 11.499 21.8901 11.499 20.5373C11.499 19.1844 10.4144 18.0998 9.06154 18.0998ZM16.4374 18.5625C15.0845 18.5625 13.9999 19.6471 13.9999 21C13.9999 22.3529 15.0845 23.4375 16.4374 23.4375C17.7902 23.4375 18.8749 22.3529 18.8749 21C18.8749 19.6471 17.7902 18.5625 16.4374 18.5625ZM22.4374 18.5625C21.0845 18.5625 19.9999 19.6471 19.9999 21C19.9999 22.3529 21.0845 23.4375 22.4374 23.4375C23.7902 23.4375 24.8749 22.3529 24.8749 21C24.8749 19.6471 23.7902 18.5625 22.4374 18.5625ZM28.4374 18.5625C27.0845 18.5625 25.9999 19.6471 25.9999 21C25.9999 22.3529 27.0845 23.4375 28.4374 23.4375C29.7902 23.4375 30.8749 22.3529 30.8749 21C30.8749 19.6471 29.7902 18.5625 28.4374 18.5625Z" fill="#CB4E28"/>
</svg>
