<svg width="32" height="32" viewBox="0 0 32 32" fill="none" xmlns="http://www.w3.org/2000/svg">
<path d="M10.1657 5.93192C12.6683 4.93059 14.1617 4.33325 16.0003 4.33325C17.839 4.33325 19.3323 4.93059 21.835 5.93192L25.795 7.51592C27.067 8.02525 28.0977 8.43592 28.8057 8.80792C29.163 8.99459 29.5097 9.20792 29.7777 9.46525C30.0523 9.72925 30.3337 10.1293 30.3337 10.6666C30.3337 11.2039 30.0537 11.6039 29.7777 11.8679C29.511 12.1253 29.1643 12.3373 28.8043 12.5253C28.0977 12.8959 27.067 13.3079 25.7937 13.8186L21.8337 15.4013C19.3337 16.4026 17.8403 16.9999 16.0003 16.9999C14.1603 16.9999 12.6683 16.4026 10.1657 15.4013L6.20699 13.8173C4.93366 13.3079 3.90299 12.8973 3.19499 12.5253C2.84227 12.352 2.51517 12.1307 2.22299 11.8679C1.94833 11.6039 1.66699 11.2039 1.66699 10.6666C1.66699 10.1293 1.94699 9.72925 2.22299 9.46525C2.48966 9.20792 2.83633 8.99592 3.19633 8.80792C3.90299 8.43725 4.93366 8.02525 6.20699 7.51459L10.1657 5.93192Z" fill="#CB4E28"/>
<path opacity="0.7" d="M3.33583 15.2574L3.33316 15.2534C3.2352 15.1658 3.12095 15.0984 2.99693 15.055C2.87292 15.0116 2.74158 14.9931 2.6104 15.0005C2.47922 15.0078 2.35078 15.041 2.2324 15.098C2.11403 15.155 2.00804 15.2347 1.9205 15.3327C1.83295 15.4307 1.76555 15.5449 1.72216 15.6689C1.67877 15.7929 1.66022 15.9243 1.66759 16.0555C1.68247 16.3204 1.80198 16.5686 1.99983 16.7454L2.0025 16.748L2.00916 16.7534L2.02783 16.7694L2.08783 16.8214C2.1385 16.8632 2.21005 16.9205 2.3025 16.9934C2.48916 17.1374 2.75983 17.3347 3.11583 17.5654C3.8265 18.0267 4.87583 18.6187 6.2665 19.1747L10.0118 20.6734L10.1652 20.7347C12.6678 21.736 14.1612 22.3334 15.9998 22.3334C17.8385 22.3334 19.3318 21.736 21.8332 20.7347L21.9878 20.6734L25.7332 19.1734C26.833 18.7401 27.8882 18.2012 28.8838 17.564C29.2394 17.3343 29.5825 17.086 29.9118 16.82L29.9718 16.768L29.9905 16.752L29.9972 16.7467L29.9985 16.744H30.0012C30.199 16.5672 30.3185 16.3191 30.3334 16.0541C30.3483 15.7892 30.2573 15.5292 30.0805 15.3314C29.9037 15.1335 29.6555 15.014 29.3906 14.9991C29.1257 14.9843 28.8657 15.0752 28.6678 15.252L28.6652 15.2547L28.6625 15.256L28.6305 15.284L28.4732 15.4094C28.2536 15.5767 28.0277 15.7355 27.7958 15.8854C27.1825 16.284 26.2478 16.8147 24.9892 17.3174L21.2452 18.8147C18.5452 19.8947 17.4132 20.332 15.9998 20.332C14.5865 20.332 13.4532 19.8947 10.7545 18.8147L7.00916 17.32C6.02923 16.9361 5.08957 16.4565 4.20383 15.888C3.90458 15.6929 3.61533 15.4829 3.33716 15.2587" fill="#CB4E28"/>
<path opacity="0.4" d="M3.33226 20.6665C3.13431 20.4916 2.87515 20.402 2.6114 20.4175C2.34764 20.4329 2.10072 20.5521 1.92458 20.7491C1.74843 20.946 1.65738 21.2046 1.67131 21.4685C1.68524 21.7323 1.80302 21.9799 1.99892 22.1572H2.00026L2.00292 22.1599L2.00959 22.1652L2.02826 22.1812L2.08826 22.2332L2.30292 22.4065C2.48959 22.5492 2.76026 22.7465 3.11626 22.9772C3.82692 23.4385 4.87626 24.0305 6.26692 24.5865L10.0123 26.0852L10.1656 26.1465C12.6683 27.1479 14.1616 27.7465 16.0003 27.7465C17.8389 27.7465 19.3323 27.1479 21.8336 26.1465L21.9883 26.0852L25.7336 24.5865C26.8335 24.1529 27.8886 23.6135 28.8843 22.9759C29.2398 22.7462 29.583 22.4978 29.9123 22.2319L29.9723 22.1799L29.9909 22.1639L29.9976 22.1585L29.9989 22.1572L30.0016 22.1545C30.1975 21.9773 30.3153 21.7297 30.3292 21.4658C30.3431 21.202 30.2521 20.9433 30.0759 20.7464C29.8998 20.5495 29.6529 20.4303 29.3891 20.4148C29.1254 20.3993 28.8662 20.4889 28.6683 20.6639L28.6656 20.6665L28.6629 20.6679L28.6309 20.6959L28.4736 20.8212C28.2541 20.9886 28.0281 21.1474 27.7963 21.2972C27.1829 21.6959 26.2483 22.2265 24.9896 22.7292L21.2456 24.2265C18.5456 25.3065 17.4136 25.7439 16.0003 25.7439C14.5869 25.7439 13.4536 25.3065 10.7549 24.2265L7.00959 22.7292C6.02971 22.3457 5.09005 21.8665 4.20426 21.2985C3.9165 21.1112 3.63795 20.9101 3.36959 20.6959L3.33626 20.6692L3.33226 20.6665Z" fill="#CB4E28"/>
</svg>
