<svg width="32" height="32" viewBox="0 0 32 32" fill="none" xmlns="http://www.w3.org/2000/svg">
<path d="M5.8067 5.92584L9.58408 10.9102L14.4669 5.92584H5.8067ZM17.6348 5.92584L22.4532 10.8438L26.1212 5.92578H17.6348L17.6348 5.92584ZM16.0508 5.97853L10.756 11.3829H21.3457L16.0508 5.97853ZM27.17 6.47266L23.5059 11.3828H30.9082L27.17 6.47266ZM4.79102 6.51953L1.17977 11.3828H8.47852L4.79102 6.51953ZM1.13477 12.5508L14.1602 26.8263L8.95908 12.5507H1.13483L1.13477 12.5508ZM10.2012 12.5508L16.0508 28.6035L21.9003 12.5508H10.2013H10.2012ZM23.1425 12.5508L17.9416 26.8263L30.9669 12.5507H23.1426L23.1425 12.5508Z" fill="#CB4E28"/>
</svg>
