<svg width="32" height="32" viewBox="0 0 32 32" fill="none" xmlns="http://www.w3.org/2000/svg">
<path d="M16.0003 29.3332C12.9559 29.3332 10.6394 28.9385 9.05099 28.1492C7.46255 27.3598 6.66788 26.1989 6.66699 24.6665C6.66699 24.0221 6.81144 23.4332 7.10033 22.8998C7.38921 22.3665 7.82255 21.9109 8.40033 21.5332C8.26699 21.7109 8.16166 21.9278 8.08433 22.1838C8.00699 22.4398 7.96788 22.7229 7.96699 23.0332C7.96699 23.8776 8.27277 24.5443 8.88433 25.0332C9.49588 25.5221 10.2292 25.8887 11.0843 26.1332C11.9394 26.3776 12.8225 26.5278 13.7337 26.5838C14.6448 26.6398 15.4003 26.6674 16.0003 26.6665C16.6003 26.6656 17.3559 26.6381 18.267 26.5838C19.1781 26.5296 20.0617 26.3794 20.9177 26.1332C21.7737 25.8869 22.507 25.5203 23.1177 25.0332C23.7283 24.5461 24.0337 23.8794 24.0337 23.0332C24.0337 22.7221 23.9945 22.4389 23.9163 22.1838C23.8381 21.9287 23.7328 21.7118 23.6003 21.5332C24.1781 21.9109 24.6114 22.3665 24.9003 22.8998C25.1892 23.4332 25.3337 24.0221 25.3337 24.6665C25.3337 26.1998 24.5394 27.3612 22.951 28.1505C21.3625 28.9398 19.0457 29.3341 16.0003 29.3332ZM16.0003 25.3332C13.9559 25.3332 12.3337 25.0945 11.1337 24.6172C9.93366 24.1398 9.33366 23.4896 9.33366 22.6665C9.33366 21.8887 9.95055 21.2501 11.1843 20.7505C12.4181 20.2509 14.0234 20.0007 16.0003 19.9998C18.0448 19.9998 19.667 20.2389 20.867 20.7172C22.067 21.1954 22.667 21.8452 22.667 22.6665C22.667 23.4878 22.067 24.1381 20.867 24.6172C19.667 25.0963 18.0448 25.3349 16.0003 25.3332ZM14.667 18.6665V11.9998H12.0003L17.3337 2.6665V9.33317H20.0003L14.667 18.6665Z" fill="#CB4E28"/>
</svg>
