<svg width="24" height="24" viewBox="0 0 24 24" fill="none" xmlns="http://www.w3.org/2000/svg">
<path d="M5.6999 5.80005C4.82469 5.80005 3.98532 6.14773 3.36645 6.7666C2.74758 7.38547 2.3999 8.22483 2.3999 9.10005V10.6H21.5999V9.10005C21.5999 8.22483 21.2522 7.38547 20.6334 6.7666C20.0145 6.14773 19.1751 5.80005 18.2999 5.80005H5.6999ZM21.5999 11.8H2.3999V16.9C2.3999 17.7753 2.74758 18.6146 3.36645 19.2335C3.98532 19.8524 4.82469 20.2 5.6999 20.2H18.2999C19.1751 20.2 20.0145 19.8524 20.6334 19.2335C21.2522 18.6146 21.5999 17.7753 21.5999 16.9V11.8ZM16.1999 16.6H18.5999C18.759 16.6 18.9116 16.6633 19.0242 16.7758C19.1367 16.8883 19.1999 17.0409 19.1999 17.2C19.1999 17.3592 19.1367 17.5118 19.0242 17.6243C18.9116 17.7368 18.759 17.8 18.5999 17.8H16.1999C16.0408 17.8 15.8882 17.7368 15.7756 17.6243C15.6631 17.5118 15.5999 17.3592 15.5999 17.2C15.5999 17.0409 15.6631 16.8883 15.7756 16.7758C15.8882 16.6633 16.0408 16.6 16.1999 16.6Z" fill="#CB4E28"/>
</svg>
