<svg width="24" height="24" viewBox="0 0 24 24" fill="none" xmlns="http://www.w3.org/2000/svg">
<path d="M11.9999 7.5C11.3749 7.5 10.7928 7.61719 10.2538 7.85156C9.7147 8.08594 9.23814 8.40625 8.82408 8.8125C8.41001 9.21875 8.08579 9.69922 7.85142 10.2539C7.61704 10.8086 7.49986 11.3906 7.49986 12C7.49986 12.625 7.61704 13.207 7.85142 13.7461C8.08579 14.2852 8.40611 14.7617 8.81236 15.1758C9.21861 15.5898 9.69517 15.9141 10.242 16.1484C10.7889 16.3828 11.3749 16.5 11.9999 16.5C12.617 16.5 13.1991 16.3828 13.746 16.1484C14.2928 15.9141 14.7694 15.5938 15.1756 15.1875C15.5819 14.7812 15.9061 14.3047 16.1483 13.7578C16.3905 13.2109 16.5077 12.625 16.4999 12C16.4999 11.5 16.4139 11 16.242 10.5H17.8124C17.8749 10.75 17.9217 11 17.953 11.25C17.9842 11.5 17.9999 11.75 17.9999 12C17.9999 12.8281 17.8436 13.6055 17.5311 14.332C17.2186 15.0586 16.7889 15.6914 16.242 16.2305C15.6952 16.7695 15.0585 17.1992 14.3319 17.5195C13.6053 17.8398 12.828 18 11.9999 18C11.1717 18 10.3944 17.8438 9.66783 17.5312C8.94126 17.2188 8.30845 16.7891 7.76939 16.2422C7.23033 15.6953 6.80064 15.0586 6.48033 14.332C6.16001 13.6055 6.00376 12.8281 6.01158 12C6.01158 11.1719 6.16783 10.3945 6.48033 9.66797C6.79283 8.94141 7.21861 8.30859 7.75767 7.76953C8.29673 7.23047 8.93345 6.80078 9.66783 6.48047C10.4022 6.16016 11.1795 6 11.9999 6C12.2499 6 12.4999 6.01562 12.7499 6.04688C12.9999 6.07812 13.2499 6.125 13.4999 6.1875V7.75781C12.9999 7.58594 12.4999 7.5 11.9999 7.5ZM22.1483 9.31641C22.3827 10.1992 22.4999 11.0938 22.4999 12C22.4999 12.9609 22.3749 13.8867 22.1249 14.7773C21.8749 15.668 21.5233 16.5039 21.0702 17.2852C20.617 18.0664 20.0663 18.7773 19.4178 19.418C18.7694 20.0586 18.0624 20.6055 17.2967 21.0586C16.5311 21.5117 15.6952 21.8672 14.7889 22.125C13.8827 22.3828 12.953 22.5078 11.9999 22.5C11.0389 22.5 10.1131 22.375 9.22251 22.125C8.33189 21.875 7.49595 21.5234 6.7147 21.0703C5.93345 20.6172 5.22251 20.0664 4.58189 19.418C3.94126 18.7695 3.39439 18.0625 2.94126 17.2969C2.48814 16.5312 2.13267 15.6953 1.87486 14.7891C1.61704 13.8828 1.49204 12.9531 1.49986 12C1.49986 11.0391 1.62486 10.1133 1.87486 9.22266C2.12486 8.33203 2.47642 7.49609 2.92954 6.71484C3.38267 5.93359 3.93345 5.22266 4.58189 4.58203C5.23033 3.94141 5.93736 3.39453 6.70298 2.94141C7.46861 2.48828 8.30454 2.13281 9.21079 1.875C10.117 1.61719 11.0467 1.49219 11.9999 1.5C12.9061 1.5 13.8006 1.61719 14.6835 1.85156L13.4999 3.03516V3.12891C13.2499 3.08984 12.9999 3.05859 12.7499 3.03516C12.4999 3.01172 12.2499 3 11.9999 3C11.1717 3 10.3749 3.10547 9.60923 3.31641C8.84361 3.52734 8.12876 3.83203 7.4647 4.23047C6.80064 4.62891 6.19126 5.09766 5.63658 5.63672C5.08189 6.17578 4.61314 6.78125 4.23033 7.45312C3.84751 8.125 3.54673 8.84375 3.32798 9.60938C3.10923 10.375 2.99986 11.1719 2.99986 12C2.99986 12.8281 3.10533 13.625 3.31626 14.3906C3.5272 15.1562 3.83189 15.8711 4.23033 16.5352C4.62876 17.1992 5.09751 17.8086 5.63658 18.3633C6.17564 18.918 6.78111 19.3867 7.45298 19.7695C8.12486 20.1523 8.84361 20.4531 9.60923 20.6719C10.3749 20.8906 11.1717 21 11.9999 21C12.828 21 13.6249 20.8945 14.3905 20.6836C15.1561 20.4727 15.8709 20.168 16.535 19.7695C17.1991 19.3711 17.8085 18.9023 18.3631 18.3633C18.9178 17.8242 19.3866 17.2188 19.7694 16.5469C20.1522 15.875 20.453 15.1562 20.6717 14.3906C20.8905 13.625 20.9999 12.8281 20.9999 12C20.9999 11.75 20.9881 11.5 20.9647 11.25C20.9413 11 20.91 10.75 20.871 10.5H20.9647L22.1483 9.31641ZM14.9999 7.93359V4.57031L19.4999 0.0703125V4.5H23.9295L19.4295 9H16.0663L13.453 11.6133C13.4842 11.7305 13.4999 11.8594 13.4999 12C13.4999 12.2109 13.4608 12.4062 13.3827 12.5859C13.3045 12.7656 13.1991 12.9219 13.0663 13.0547C12.9335 13.1875 12.7733 13.2969 12.5858 13.3828C12.3983 13.4688 12.203 13.5078 11.9999 13.5C11.7889 13.5 11.5936 13.4609 11.4139 13.3828C11.2342 13.3047 11.078 13.1992 10.9452 13.0664C10.8124 12.9336 10.703 12.7734 10.617 12.5859C10.5311 12.3984 10.492 12.2031 10.4999 12C10.4999 11.7891 10.5389 11.5938 10.617 11.4141C10.6952 11.2344 10.8006 11.0781 10.9335 10.9453C11.0663 10.8125 11.2264 10.7031 11.4139 10.6172C11.6014 10.5312 11.7967 10.4922 11.9999 10.5C12.1405 10.5 12.2694 10.5156 12.3866 10.5469L14.9999 7.93359ZM16.4999 7.5H18.8085L20.3085 6H17.9999V3.69141L16.4999 5.19141V7.5Z" fill="#CB4E28"/>
</svg>
