<svg width="24" height="24" viewBox="0 0 24 24" fill="none" xmlns="http://www.w3.org/2000/svg">
<path fill-rule="evenodd" clip-rule="evenodd" d="M3.6 2.25C3.24196 2.25 2.89858 2.39223 2.64541 2.64541C2.39223 2.89858 2.25 3.24196 2.25 3.6V20.4C2.25 21.146 2.854 21.75 3.6 21.75H20.4C20.5773 21.75 20.7528 21.7151 20.9166 21.6472C21.0804 21.5794 21.2292 21.48 21.3546 21.3546C21.48 21.2292 21.5794 21.0804 21.6472 20.9166C21.7151 20.7528 21.75 20.5773 21.75 20.4V3.6C21.75 3.42272 21.7151 3.24717 21.6472 3.08338C21.5794 2.91959 21.48 2.77076 21.3546 2.64541C21.2292 2.52005 21.0804 2.42061 20.9166 2.35276C20.7528 2.28492 20.5773 2.25 20.4 2.25H3.6ZM12.75 5.5C12.75 5.30109 12.671 5.11032 12.5303 4.96967C12.3897 4.82902 12.1989 4.75 12 4.75C11.8011 4.75 11.6103 4.82902 11.4697 4.96967C11.329 5.11032 11.25 5.30109 11.25 5.5V6.603C10.735 6.68 10.23 6.858 9.803 7.182C9.13 7.692 8.75 8.483 8.75 9.5C8.75 9.996 8.864 10.4347 9.092 10.816C9.317 11.192 9.626 11.469 9.957 11.68C10.569 12.07 11.35 12.282 11.996 12.458L12.053 12.474C12.772 12.67 13.337 12.831 13.738 13.086C13.923 13.204 14.043 13.325 14.12 13.453C14.193 13.576 14.25 13.745 14.25 14C14.25 14.61 14.005 14.992 13.646 15.243C13.256 15.516 12.681 15.665 12.026 15.642C11.026 15.605 10.071 15.178 9.6 14.55C9.54091 14.4712 9.46687 14.4048 9.38212 14.3546C9.29737 14.3045 9.20357 14.2715 9.10607 14.2575C9.00856 14.2436 8.90927 14.249 8.81386 14.2735C8.71845 14.2979 8.62879 14.3409 8.55 14.4C8.47121 14.4591 8.40482 14.5331 8.35464 14.6179C8.30446 14.7026 8.27147 14.7964 8.25754 14.8939C8.24361 14.9914 8.24902 15.0907 8.27347 15.1861C8.29791 15.2815 8.3409 15.3712 8.4 15.45C9.07 16.343 10.157 16.875 11.25 17.065V18.5C11.25 18.6989 11.329 18.8897 11.4697 19.0303C11.6103 19.171 11.8011 19.25 12 19.25C12.1989 19.25 12.3897 19.171 12.5303 19.0303C12.671 18.8897 12.75 18.6989 12.75 18.5V17.109C13.378 17.034 13.992 16.833 14.506 16.472C15.263 15.942 15.75 15.102 15.75 14C15.75 13.504 15.636 13.0653 15.408 12.684C15.1924 12.3313 14.8959 12.0352 14.543 11.82C13.931 11.43 13.15 11.218 12.504 11.042L12.447 11.026C11.728 10.83 11.163 10.669 10.762 10.414C10.6067 10.3246 10.4755 10.1986 10.38 10.047C10.2868 9.88025 10.2418 9.69086 10.25 9.5C10.25 8.886 10.46 8.565 10.708 8.378C10.988 8.166 11.424 8.043 11.98 8.058C12.929 8.084 13.941 8.502 14.47 9.03C14.5387 9.10369 14.6215 9.16279 14.7135 9.20378C14.8055 9.24477 14.9048 9.26682 15.0055 9.26859C15.1062 9.27037 15.2062 9.25184 15.2996 9.21412C15.393 9.1764 15.4778 9.12026 15.549 9.04904C15.6203 8.97782 15.6764 8.89299 15.7141 8.7996C15.7518 8.70621 15.7704 8.60618 15.7686 8.50548C15.7668 8.40478 15.7448 8.30546 15.7038 8.21346C15.6628 8.12146 15.6037 8.03866 15.53 7.97C14.848 7.287 13.799 6.807 12.75 6.63V5.5Z" fill="#CB4E28"/>
</svg>
