<svg width="25" height="25" viewBox="0 0 25 25" fill="none" xmlns="http://www.w3.org/2000/svg">
<path d="M17.1002 6.6198C16.4167 5.83933 16.0401 4.8372 16.0402 3.7998H12.9502V16.1998C12.9268 16.871 12.6437 17.5069 12.1605 17.9733C11.6773 18.4397 11.0318 18.7002 10.3602 18.6998C8.94016 18.6998 7.76016 17.5398 7.76016 16.0998C7.76016 14.3798 9.42016 13.0898 11.1302 13.6198V10.4598C7.68016 9.9998 4.66016 12.6798 4.66016 16.0998C4.66016 19.4298 7.42016 21.7998 10.3502 21.7998C13.4902 21.7998 16.0402 19.2498 16.0402 16.0998V9.8098C17.2932 10.7097 18.7975 11.1925 20.3402 11.1898V8.0998C20.3402 8.0998 18.4602 8.1898 17.1002 6.6198Z" fill="white"/>
</svg>
