<svg width="25" height="25" viewBox="0 0 25 25" fill="none" xmlns="http://www.w3.org/2000/svg">
<path d="M22.459 14.5187V21.8977H18.181V15.0127C18.181 13.2827 17.562 12.1027 16.014 12.1027C14.832 12.1027 14.128 12.8987 13.819 13.6677C13.706 13.9427 13.677 14.3257 13.677 14.7107V21.8977H9.397C9.397 21.8977 9.455 10.2377 9.397 9.02868H13.677V10.8527L13.649 10.8947H13.677V10.8527C14.245 9.97768 15.26 8.72668 17.533 8.72668C20.348 8.72668 22.459 10.5667 22.459 14.5187ZM4.921 2.82568C3.458 2.82568 2.5 3.78568 2.5 5.04868C2.5 6.28368 3.43 7.27268 4.865 7.27268H4.893C6.386 7.27268 7.313 6.28368 7.313 5.04868C7.287 3.78568 6.386 2.82568 4.921 2.82568ZM2.754 21.8977H7.032V9.02868H2.754V21.8977Z" fill="white"/>
</svg>
