<svg width="32" height="33" viewBox="0 0 32 33" fill="none" xmlns="http://www.w3.org/2000/svg">
<path fill-rule="evenodd" clip-rule="evenodd" d="M3.3335 8.5C3.3335 7.70435 3.64957 6.94129 4.21218 6.37868C4.77478 5.81607 5.53785 5.5 6.3335 5.5H25.6668C26.4625 5.5 27.2255 5.81607 27.7882 6.37868C28.3508 6.94129 28.6668 7.70435 28.6668 8.5V22.564C28.6668 23.3596 28.3508 24.1227 27.7882 24.6853C27.2255 25.2479 26.4625 25.564 25.6668 25.564H10.1802L5.00016 30.2027C4.85628 30.3314 4.67822 30.4157 4.48748 30.4454C4.29675 30.4751 4.10148 30.449 3.92526 30.3702C3.74904 30.2914 3.59939 30.1633 3.49438 30.0013C3.38938 29.8393 3.3335 29.6504 3.3335 29.4573V8.5ZM6.3335 7.5C6.06828 7.5 5.81393 7.60536 5.62639 7.79289C5.43885 7.98043 5.3335 8.23478 5.3335 8.5V27.22L9.13083 23.82C9.31397 23.6555 9.55134 23.5644 9.7975 23.564H25.6668C25.932 23.564 26.1864 23.4586 26.3739 23.2711C26.5615 23.0836 26.6668 22.8292 26.6668 22.564V8.5C26.6668 8.23478 26.5615 7.98043 26.3739 7.79289C26.1864 7.60536 25.932 7.5 25.6668 7.5H6.3335Z" fill="white"/>
</svg>
