<svg width="48" height="48" viewBox="0 0 48 48" fill="none" xmlns="http://www.w3.org/2000/svg">
<path d="M28.0001 42H20.0001L18.8981 37.04C17.5867 36.5269 16.3603 35.819 15.2601 34.94L10.4121 36.466L6.41211 29.538L10.1561 26.102C9.94491 24.71 9.94491 23.294 10.1561 21.902L6.41211 18.464L10.4121 11.536L15.2601 13.062C16.3607 12.1821 17.5879 11.4735 18.9001 10.96L20.0001 6H28.0001L29.1021 10.96C30.4135 11.4731 31.64 12.181 32.7401 13.06L37.5881 11.534L41.5881 18.462L37.8441 21.898C38.0553 23.29 38.0553 24.706 37.8441 26.098L41.5881 29.534L37.5881 36.462L32.7401 34.936C31.6402 35.8164 30.4137 36.5257 29.1021 37.04L28.0001 42Z" stroke="#CB4E28" stroke-width="2" stroke-linecap="round" stroke-linejoin="round"/>
<path d="M18 24L22 28L30 20" stroke="#CB4E28" stroke-width="2" stroke-linecap="round" stroke-linejoin="round"/>
</svg>
