<svg width="24" height="24" viewBox="0 0 24 24" fill="none" xmlns="http://www.w3.org/2000/svg">
<path d="M11.385 16.5H12.615V14H15.115V12.77H12.615V10.27H11.385V12.77H8.885V14H11.385V16.5ZM7.615 19.885C7.171 19.885 6.791 19.7267 6.475 19.41C6.159 19.0933 6.00067 18.7133 6 18.27V8.49999C6 8.05599 6.15833 7.67599 6.475 7.35999C6.791 7.04266 7.171 6.88399 7.615 6.88399H16.385C16.829 6.88399 17.209 7.04232 17.525 7.35899C17.8417 7.67566 18 8.05599 18 8.49999V18.27C18 18.714 17.8417 19.094 17.525 19.41C17.2083 19.726 16.8283 19.8843 16.385 19.885H7.615ZM6.463 5.11499V4.11499H17.54V5.11499H6.463Z" fill="#CB4E28"/>
</svg>
