<svg width="48" height="48" viewBox="0 0 48 48" fill="none" xmlns="http://www.w3.org/2000/svg">
<path d="M20 21.9999H28M24 17.9999V25.9999M22.934 41.6399C23.2405 41.8731 23.6149 41.9995 24 41.9995C24.3851 41.9995 24.7596 41.8731 25.066 41.6399C28.336 39.1859 38 31.1719 38 22.0319V12.1719C38.0021 11.9176 37.9098 11.6715 37.741 11.4812C37.5722 11.291 37.3388 11.1701 37.086 11.1419C33.0813 10.7317 29.2432 9.3249 25.922 7.04989L24.702 6.21589C24.4954 6.074 24.2507 5.99805 24 5.99805C23.7494 5.99805 23.5046 6.074 23.298 6.21589L22.078 7.04989C18.7569 9.3249 14.9187 10.7317 10.914 11.1419C10.6613 11.1701 10.4279 11.291 10.2591 11.4812C10.0903 11.6715 9.99797 11.9176 10 12.1719V22.0319C10 31.1719 19.664 39.1859 22.934 41.6359" stroke="#CB4E28" stroke-width="1.5" stroke-linecap="round" stroke-linejoin="round"/>
</svg>
