<svg width="32" height="33" viewBox="0 0 32 33" fill="none" xmlns="http://www.w3.org/2000/svg">
<path d="M6.66634 20.5002H13.333M6.66634 16.5002H13.333M6.66634 12.5002H13.333M17.333 16.5002L19.9997 19.1668L25.333 13.8335M4.53301 5.8335H27.4663C28.315 5.8335 29.129 6.17064 29.7291 6.77075C30.3292 7.37087 30.6663 8.1848 30.6663 9.0335V23.9668C30.6663 24.8155 30.3292 25.6295 29.7291 26.2296C29.129 26.8297 28.315 27.1668 27.4663 27.1668H4.53301C3.68432 27.1668 2.87038 26.8297 2.27027 26.2296C1.67015 25.6295 1.33301 24.8155 1.33301 23.9668V9.0335C1.33301 8.1848 1.67015 7.37087 2.27027 6.77075C2.87038 6.17064 3.68432 5.8335 4.53301 5.8335Z" stroke="white" stroke-width="1.5" stroke-linecap="round" stroke-linejoin="round"/>
</svg>
