<svg width="48" height="48" viewBox="0 0 48 48" fill="none" xmlns="http://www.w3.org/2000/svg">
<path d="M4 24C4 14.572 4 9.858 6.928 6.928C9.86 4 14.572 4 24 4C33.428 4 38.142 4 41.07 6.928C44 9.86 44 14.572 44 24C44 33.428 44 38.142 41.07 41.07C38.144 44 33.428 44 24 44C14.572 44 9.858 44 6.928 41.07C4 38.144 4 33.428 4 24Z" stroke="#CB4E28" stroke-width="1.5"/>
<path d="M14 28L18.586 23.414C18.9611 23.0391 19.4697 22.8284 20 22.8284C20.5303 22.8284 21.0389 23.0391 21.414 23.414L24.586 26.586C24.9611 26.9609 25.4697 27.1716 26 27.1716C26.5303 27.1716 27.0389 26.9609 27.414 26.586L34 20M34 20V25M34 20H29" stroke="#CB4E28" stroke-width="1.5" stroke-linecap="round" stroke-linejoin="round"/>
</svg>
