<svg width="32" height="32" viewBox="0 0 32 32" fill="none" xmlns="http://www.w3.org/2000/svg">
<g clip-path="url(#clip0_779_334)">
<path fill-rule="evenodd" clip-rule="evenodd" d="M16.4731 1.09253C16.3246 1.02495 16.1632 0.98999 16 0.98999C15.8368 0.98999 15.6754 1.02495 15.5268 1.09253L9.53142 3.82167L15.9954 6.76567L22.464 3.81939L16.4731 1.09253ZM8.45714 12.8228V5.84225L14.8571 8.75653V16.4708L9.12228 13.8628C8.92262 13.772 8.75331 13.6257 8.63455 13.4413C8.5158 13.2568 8.45263 13.0422 8.45256 12.8228H8.45714ZM17.1428 28.1645V20.5302L23.2046 23.2914V31.0057L17.4766 28.3977C17.3515 28.3408 17.2399 28.2618 17.1428 28.1645ZM25.4903 31.0102V23.2914L31.8971 20.3748V27.3577C31.8971 27.577 31.8339 27.7917 31.7151 27.9761C31.5964 28.1605 31.4271 28.3069 31.2274 28.3977L25.4903 31.0102ZM14.8526 20.5302V28.1737C14.7575 28.2668 14.6469 28.3426 14.5257 28.3977L8.78856 31.0102V23.2914L14.8526 20.5302ZM6.50285 23.2914V31.0057L0.777136 28.3977C0.577477 28.3069 0.408165 28.1605 0.289413 27.9761C0.17066 27.7917 0.107483 27.577 0.107422 27.3577V20.3771L6.50742 23.2914H6.50285ZM17.1383 16.4754V8.75425L23.5451 5.83767V12.8228C23.5451 13.0422 23.4819 13.2568 23.3631 13.4413C23.2444 13.6257 23.0751 13.772 22.8754 13.8628L17.1383 16.4754ZM23.8766 15.6297C24.0251 15.5621 24.1865 15.5271 24.3497 15.5271C24.5129 15.5271 24.6743 15.5621 24.8228 15.6297L30.8114 18.3542L24.3428 21.3005L17.8857 18.3542L23.8788 15.6251L23.8766 15.6297ZM7.17714 15.6297C7.32572 15.5621 7.48705 15.5271 7.65028 15.5271C7.81351 15.5271 7.97484 15.5621 8.12342 15.6297L14.112 18.3542L7.64571 21.3028L1.18399 18.3542L7.17714 15.6297Z" fill="#CB4E28"/>
</g>
<defs>
<clipPath id="clip0_779_334">
<rect width="32" height="32" fill="white"/>
</clipPath>
</defs>
</svg>
