<svg width="25" height="25" viewBox="0 0 25 25" fill="none" xmlns="http://www.w3.org/2000/svg">
<path d="M17.84 6.2598C17.6027 6.2598 17.3707 6.33018 17.1733 6.46204C16.976 6.5939 16.8222 6.78131 16.7313 7.00058C16.6405 7.21986 16.6168 7.46114 16.6631 7.69391C16.7094 7.92669 16.8236 8.14051 16.9915 8.30833C17.1593 8.47616 17.3731 8.59044 17.6059 8.63675C17.8387 8.68305 18.0799 8.65929 18.2992 8.56846C18.5185 8.47763 18.7059 8.32383 18.8378 8.12649C18.9696 7.92915 19.04 7.69714 19.04 7.4598C19.04 7.14154 18.9136 6.83632 18.6885 6.61128C18.4635 6.38623 18.1583 6.2598 17.84 6.2598ZM22.44 8.6798C22.4204 7.85012 22.265 7.02926 21.98 6.2498C21.7269 5.58235 21.331 4.97827 20.82 4.4798C20.3248 3.96723 19.7196 3.57398 19.05 3.3298C18.2727 3.03597 17.4508 2.87701 16.62 2.8598C15.56 2.7998 15.22 2.7998 12.5 2.7998C9.78 2.7998 9.44 2.7998 8.38 2.8598C7.54915 2.87701 6.72734 3.03597 5.95 3.3298C5.28198 3.57706 4.67736 3.96989 4.18 4.4798C3.66743 4.97498 3.27418 5.58024 3.03 6.2498C2.73616 7.02715 2.57721 7.84896 2.56 8.6798C2.5 9.7398 2.5 10.0798 2.5 12.7998C2.5 15.5198 2.5 15.8598 2.56 16.9198C2.57721 17.7507 2.73616 18.5725 3.03 19.3498C3.27418 20.0194 3.66743 20.6246 4.18 21.1198C4.67736 21.6297 5.28198 22.0226 5.95 22.2698C6.72734 22.5636 7.54915 22.7226 8.38 22.7398C9.44 22.7998 9.78 22.7998 12.5 22.7998C15.22 22.7998 15.56 22.7998 16.62 22.7398C17.4508 22.7226 18.2727 22.5636 19.05 22.2698C19.7196 22.0256 20.3248 21.6324 20.82 21.1198C21.3322 20.6224 21.7283 20.018 21.98 19.3498C22.265 18.5704 22.4204 17.7495 22.44 16.9198C22.44 15.8598 22.5 15.5198 22.5 12.7998C22.5 10.0798 22.5 9.7398 22.44 8.6798ZM20.64 16.7998C20.6329 17.4346 20.5179 18.0636 20.3 18.6598C20.1403 19.095 19.8839 19.4882 19.55 19.8098C19.2254 20.1401 18.8331 20.396 18.4 20.5598C17.8038 20.7777 17.1748 20.8927 16.54 20.8998C15.54 20.9498 15.17 20.9598 12.54 20.9598C9.91 20.9598 9.54 20.9598 8.54 20.8998C7.88085 20.9128 7.22445 20.8112 6.6 20.5998C6.18619 20.4271 5.81191 20.1719 5.5 19.8498C5.16809 19.5286 4.91484 19.135 4.76 18.6998C4.51505 18.0952 4.3796 17.4518 4.36 16.7998C4.36 15.7998 4.3 15.4298 4.3 12.7998C4.3 10.1698 4.3 9.7998 4.36 8.7998C4.36365 8.15078 4.48214 7.50753 4.71 6.8998C4.88605 6.47772 5.15626 6.10146 5.5 5.7998C5.80292 5.455 6.17863 5.18175 6.6 4.9998C7.2094 4.77928 7.85194 4.6643 8.5 4.6598C9.5 4.6598 9.87 4.5998 12.5 4.5998C15.13 4.5998 15.5 4.5998 16.5 4.6598C17.1348 4.66689 17.7638 4.78186 18.36 4.9998C18.8144 5.16846 19.2223 5.44265 19.55 5.7998C19.8767 6.10783 20.1326 6.48315 20.3 6.8998C20.5224 7.50869 20.6375 8.15157 20.64 8.7998C20.69 9.7998 20.7 10.1698 20.7 12.7998C20.7 15.4298 20.69 15.7998 20.64 16.7998ZM12.5 7.6698C11.4858 7.67178 10.495 7.97433 9.65265 8.53922C8.81035 9.10411 8.15438 9.906 7.76763 10.8436C7.38089 11.7811 7.28072 12.8123 7.47979 13.8067C7.67886 14.8012 8.16824 15.7143 8.88608 16.4308C9.60392 17.1472 10.518 17.6348 11.5129 17.832C12.5077 18.0291 13.5387 17.9269 14.4755 17.5383C15.4123 17.1498 16.2129 16.4922 16.7761 15.6488C17.3394 14.8054 17.64 13.814 17.64 12.7998C17.6413 12.1249 17.5092 11.4564 17.2512 10.8328C16.9933 10.2091 16.6146 9.64261 16.1369 9.16586C15.6592 8.6891 15.0919 8.31148 14.4678 8.05473C13.8436 7.79798 13.1749 7.66717 12.5 7.6698ZM12.5 16.1298C11.8414 16.1298 11.1976 15.9345 10.65 15.5686C10.1023 15.2027 9.67552 14.6826 9.42348 14.0741C9.17144 13.4657 9.1055 12.7961 9.23398 12.1502C9.36247 11.5042 9.67963 10.9108 10.1453 10.4451C10.611 9.97943 11.2044 9.66228 11.8503 9.53379C12.4963 9.4053 13.1659 9.47125 13.7743 9.72329C14.3828 9.97533 14.9029 10.4021 15.2688 10.9498C15.6347 11.4974 15.83 12.1412 15.83 12.7998C15.83 13.2371 15.7439 13.6701 15.5765 14.0741C15.4092 14.4782 15.1639 14.8453 14.8547 15.1545C14.5454 15.4637 14.1784 15.709 13.7743 15.8763C13.3703 16.0437 12.9373 16.1298 12.5 16.1298Z" fill="white"/>
</svg>
