<svg width="11" height="16" viewBox="0 0 11 16" fill="none" xmlns="http://www.w3.org/2000/svg">
<path d="M5.01313 12.5H5.98688V9.99999H7.96604V8.76999H5.98688V6.26999H5.01313V8.76999H3.03396V9.99999H5.01313V12.5ZM2.02854 15.885C1.67704 15.885 1.37621 15.7267 1.12604 15.41C0.875875 15.0933 0.750528 14.7133 0.75 14.27V4.49999C0.75 4.05599 0.875347 3.67599 1.12604 3.35999C1.37621 3.04266 1.67704 2.88399 2.02854 2.88399H8.97146C9.32296 2.88399 9.62379 3.04232 9.87396 3.35899C10.1247 3.67566 10.25 4.05599 10.25 4.49999V14.27C10.25 14.714 10.1247 15.094 9.87396 15.41C9.62326 15.726 9.32243 15.8843 8.97146 15.885H2.02854ZM1.11654 1.11499V0.11499H9.88583V1.11499H1.11654Z" fill="#CB4E28"/>
</svg>
